<svg version="1.1" xmlns="http://www.w3.org/2000/svg" xmlns:xlink="http://www.w3.org/1999/xlink" width="426.54" height="353.03" viewBox="0,0,426.54,353.03"><defs><clipPath id="clip-1"><path d="M307.39,331.67c0,0 7.65,11.04 5.8,13.83c-1.85,2.79 -13.7,16.34 -20.53,19.49c-6.83,3.15 -11.93,0.21 -11.93,0.21c0,0 -0.63,-0.28 0.21,-4.37c0.43,-2.1 7.43,-13.13 8.82,-18.89c1.39,-5.76 -0.93,-16.31 -0.93,-16.31c2.55,-9.59 15.55,-4.8 15.55,-4.8z" fill="none"/></clipPath><clipPath id="clip-2"><path d="M343.41,348.18c1.40261,5.80143 2.32903,11.70773 2.77,17.66h-34.81c0,0 0.01,-4.17 1.53,-5.35c1.52,-1.18 9.75,-8.11 11.31,-12.11c1.56,-4 2.39,-17.75 2.39,-17.75c11.46,-0.84 17,3.16 17,3.16z" fill="none"/></clipPath><clipPath id="clip-3"><path d="M384.38,166.1c-7.91,5.52 -19.38,-14.48 -19.38,-14.48l-8.15,11.21c7.08,16.22 1.68,12.67 1.68,12.67c-24.26,-0.12 -62.38,-19.26 -62.38,-19.26c-5.14,-12.66 -3.56,-41.14 -3.56,-41.14c-47.47,-15.86 -31.67,-22.6 -32.07,-40c-0.4,-17.4 4.74,-29.5 4.74,-29.5v-4.91h11.46c0,0 4.75,37.97 7.12,39.48c2.37,1.51 21.62,-2.07 27.16,-1.67c3.341,0.248 6.52173,1.53077 9.1,3.67c3.77,-0.07 5.24,1.58 5.24,1.58c0,0 26.57,10.34 31.57,3.12c1.24,-1.81 3.6,0.5 3.6,0.5c4.36021,1.17401 8.50078,3.04841 12.26,5.55c13.23,8.36 19.52,67.66 11.61,73.18z" fill="none"/></clipPath><clipPath id="clip-4"><path d="M202.29,183.63h-40l1,-0.41c4.81707,-1.97499 7.97314,-6.65384 8,-11.86v-14.74h22v14.65c-0.00412,5.23729 3.15627,9.95812 8,11.95z" fill="none"/></clipPath><clipPath id="clip-5"><path d="M138.34,159.14v-60.4h87.86v60.4z" fill="none"/></clipPath><clipPath id="clip-6"><path d="M356.33,368.23v-38.46h62.72v38.46z" fill="none"/></clipPath><clipPath id="clip-7"><path d="M366.33,331.09v-30.3h62.72v30.3z" fill="none"/></clipPath><clipPath id="clip-8"><path d="M124.31,319.12c-2.1,15.86 -4.47,35.63 -4.47,49.28h-12.33v-86.4c0,-1.73969 1.4103,-3.15 3.15,-3.15h15c0,0 0.76,24.41 -1.35,40.27z" fill="none"/></clipPath><clipPath id="clip-9"><path d="M114.73,337.94v30.3h-62.72v-30.3z" fill="none"/></clipPath></defs><g transform="translate(-28.42,-15.91)"><g data-paper-data="{&quot;isPaintingLayer&quot;:true}" fill-rule="nonzero" stroke-miterlimit="10" stroke-dasharray="" stroke-dashoffset="0" style="mix-blend-mode: normal"><path d="M28.92,368.41h425.54" fill="none" stroke="#263238" stroke-width="1" stroke-linecap="round" stroke-linejoin="round"/><g stroke-width="1"><path d="M265.85,44v-5.93c-1.88,-0.81 -4.72,-5.82 -4.93,-6.81c-0.21,-0.99 -4,-1.33 -4,-1.33c0,0 -2.56,1.83 -4,1.19c-0.64,-0.27 1.74,-3.58 2,-4.11c0.26,-0.53 1.85,-1.21 1.85,-1.21c0,0 1.12,-2.35 2,-2.84c0.55397,-0.22872 1.12176,-0.42243 1.7,-0.58c0.72438,-0.49096 1.50282,-0.89696 2.32,-1.21c0.53307,0.00791 1.06337,0.07839 1.58,0.21c0.7961,-0.42731 1.63817,-0.76279 2.51,-1c1.57265,0.1589 3.12241,0.49434 4.62,1c-0.4,-1.38 0.13,-2.56 1.44,-1.38c1.3197,1.0072 2.52371,2.15756 3.59,3.43c1.18,1.53 2.24,7.04 2.24,7.53c0,0.49 -3,6 -3,6l0.74,6.33z" fill="#ffffff" stroke="#263238" stroke-linecap="round" stroke-linejoin="round"/><path d="M379.66,76.79l-5.21,6.72l-7.42,-5.74l-0.39,-5.68l5.6,-1.04z" fill="#ba296c" stroke="#263238" stroke-linecap="round" stroke-linejoin="round"/><path d="M340.78,31.79c0,0 7.27,-2.78 13,1.56c7.24,5.5 16.15,21.18 7.54,49.07c0,0 -9.29,-9.29 -35.94,0c0,0 -7.09,-3.55 -8.47,-23.93c-0.72,-10.75 -2.24,-31.25 23.87,-26.7z" fill="#263238" stroke="none" stroke-linecap="butt" stroke-linejoin="miter"/><path d="M366.64,72.08c0,0 -6.8,0.54 -9.73,-10.71" fill="none" stroke="#263238" stroke-linecap="round" stroke-linejoin="round"/><path d="M405.9,248.34l-7.84,3.28l-3.62,-8.66l2.46,-5.14l5.39,1.86z" fill="#ba296c" stroke="#263238" stroke-linecap="round" stroke-linejoin="round"/><path d="M386.1,227.38c8.33,0.2 11.06,10.88 11.06,10.88" fill="none" stroke="#263238" stroke-linecap="round" stroke-linejoin="round"/><path d="M325.04,54.54c4.75,0.88 5.11,14.23 -0.37,13.69c-7.88,-0.76 -4.96,-14.68 0.37,-13.69z" fill="#ba296c" stroke="#263238" stroke-linecap="round" stroke-linejoin="round"/><path d="M326.09,69.72c-6.49,-1.2 -6.98,-19.45 0.51,-18.72c10.77,1.05 6.79,20.09 -0.51,18.72z" fill="#757575" stroke="#263238" stroke-linecap="round" stroke-linejoin="round"/><path d="M313.48,344.15l1,2.93c-1.50898,2.50666 -3.20373,4.89669 -5.07,7.15c0,0 -1,-0.33 -2.65,1.12c-1.00613,1.01048 -1.62851,2.34011 -1.76,3.76c0,0 -7.64,9.16 -17.33,9.3c-9.69,0.14 -6.77,-4.75 -6.77,-4.75z" fill="#ba296c" stroke="#263238" stroke-linecap="round" stroke-linejoin="round"/><path d="M307.39,331.67c0,0 7.65,11.04 5.8,13.83c-1.85,2.79 -13.7,16.34 -20.53,19.49c-6.83,3.15 -11.93,0.21 -11.93,0.21c0,0 -0.63,-0.28 0.21,-4.37c0.43,-2.1 7.43,-13.13 8.82,-18.89c1.39,-5.76 -0.93,-16.31 -0.93,-16.31c2.55,-9.59 15.55,-4.8 15.55,-4.8z" fill="#ffffff" stroke="none" stroke-linecap="butt" stroke-linejoin="miter"/><g clip-path="url(#clip-1)" stroke="none" stroke-linecap="butt" stroke-linejoin="miter"><path d="M307.39,331.67c0,0 7.65,11.04 5.8,13.83c-1.85,2.79 -13.7,16.34 -20.53,19.49c-6.83,3.15 -11.93,0.21 -11.93,0.21c0,0 -0.63,-0.28 0.21,-4.37c0.43,-2.1 7.43,-13.13 8.82,-18.89c1.39,-5.76 -0.93,-16.31 -0.93,-16.31c2.55,-9.59 15.55,-4.8 15.55,-4.8z" fill="#000000" opacity="0.7"/></g><path d="M307.39,331.67c0,0 7.65,11.04 5.8,13.83c-1.85,2.79 -13.7,16.34 -20.53,19.49c-6.83,3.15 -11.93,0.21 -11.93,0.21c0,0 -0.63,-0.28 0.21,-4.37c0.43,-2.1 7.43,-13.13 8.82,-18.89c1.39,-5.76 -0.93,-16.31 -0.93,-16.31c2.55,-9.59 15.55,-4.8 15.55,-4.8z" fill="none" stroke="#263238" stroke-linecap="round" stroke-linejoin="round"/><path d="M297.72,334.38c1.13115,6.45717 -0.01777,13.10674 -3.25,18.81c0,0 -3.21,3 -1.85,4.77" fill="none" stroke="#263238" stroke-linecap="round" stroke-linejoin="round"/><path d="M296.31,351.88c0,0 -6.8,0.4 -10.35,-1" fill="none" stroke="#263238" stroke-linecap="round" stroke-linejoin="round"/><path d="M297.57,348.12c0,0 -6.36,1 -9.91,-1" fill="none" stroke="#263238" stroke-linecap="round" stroke-linejoin="round"/><path d="M298.65,344c0,0 -5.57,0.81 -9.2,-0.92" fill="none" stroke="#263238" stroke-linecap="round" stroke-linejoin="round"/><path d="M299.27,339.23c0,0 -6.2,1.95 -9.13,0" fill="none" stroke="#263238" stroke-linecap="round" stroke-linejoin="round"/><path d="M353.27,155.57c0,0 12,34.93 6.69,57.82c-5.31,22.89 -7,32.28 -6.69,44.72c0.31,12.44 -12.65,77.11 -12.65,77.11h-11.86c0,0 1.76,-56 1.67,-69.57c-0.09,-13.57 2.45,-9.86 -0.66,-23c-3.11,-13.14 -0.8,-26.37 -5.12,-40.61c0,0 -23.31,40.09 -27.53,45.89c0,0 4.69,17.61 4.16,32.58c-0.61,17.53 0.93,43.92 0.93,43.92c0,0 -2.64,4.95 -9.89,3c0,0 -18.94,-78.11 -17.88,-82c1.06,-3.89 8.44,-46.14 28.7,-74.19c0,0 3.47,-11.94 5.85,-19.58z" fill="#263238" stroke="none" stroke-linecap="butt" stroke-linejoin="miter"/><path d="M343.41,348.18c1.40261,5.80143 2.32903,11.70773 2.77,17.66h-34.81c0,0 0.01,-4.17 1.53,-5.35c1.52,-1.18 9.75,-8.11 11.31,-12.11c1.56,-4 2.39,-17.75 2.39,-17.75c11.46,-0.84 17,3.16 17,3.16z" fill="#ffffff" stroke="none" stroke-linecap="butt" stroke-linejoin="miter"/><g clip-path="url(#clip-2)" stroke="none" stroke-linecap="butt" stroke-linejoin="miter"><path d="M343.41,348.18c1.40261,5.80143 2.32903,11.70773 2.77,17.66h-34.81c0,0 0.01,-4.17 1.53,-5.35c1.52,-1.18 9.75,-8.11 11.31,-12.11c1.56,-4 2.39,-17.75 2.39,-17.75c11.46,-0.84 17,3.16 17,3.16z" fill="#000000" opacity="0.7"/></g><path d="M343.41,348.18c1.40261,5.80143 2.32903,11.70773 2.77,17.66h-34.81c0,0 0.01,-4.17 1.53,-5.35c1.52,-1.18 9.75,-8.11 11.31,-12.11c1.56,-4 2.39,-17.75 2.39,-17.75c11.46,-0.84 17,3.16 17,3.16z" fill="none" stroke="#263238" stroke-linecap="round" stroke-linejoin="round"/><path d="M336.42,335.57c0,0 -0.83,12.66 -2.79,16c-1.05538,1.83306 -2.35381,3.51497 -3.86,5c0,0 -2.38,0 0,3.2" fill="none" stroke="#263238" stroke-linecap="round" stroke-linejoin="round"/><path d="M319.71,354.35c5.29,-3.26 12.72,1 12.72,1" fill="none" stroke="#263238" stroke-linecap="round" stroke-linejoin="round"/><path d="M322.92,350.63c6.11,-2.17 11.3,1.83 11.3,1.83" fill="none" stroke="#263238" stroke-linecap="round" stroke-linejoin="round"/><path d="M324.96,346.43c5.88,-2.76 11.46,1.57 11.46,1.57" fill="none" stroke="#263238" stroke-linecap="round" stroke-linejoin="round"/><path d="M325.48,341.66c4.93,-2.76 11.69,0.87 11.69,0.87" fill="none" stroke="#263238" stroke-linecap="round" stroke-linejoin="round"/><path d="M346.17,365.84v2.57h-4c-2.08831,-1.13822 -4.61169,-1.13822 -6.7,0h-18.77c-1.98428,-0.0083 -3.94297,-0.4485 -5.74,-1.29l0.4,-1.28z" fill="#ba296c" stroke="#263238" stroke-linecap="round" stroke-linejoin="round"/><path d="M384.38,166.1c-7.91,5.52 -19.38,-14.48 -19.38,-14.48l-8.15,11.21c7.08,16.22 1.68,12.67 1.68,12.67c-24.26,-0.12 -62.38,-19.26 -62.38,-19.26c-5.14,-12.66 -3.56,-41.14 -3.56,-41.14c-47.47,-15.86 -31.67,-22.6 -32.07,-40c-0.4,-17.4 4.74,-29.5 4.74,-29.5v-4.91h11.46c0,0 4.75,37.97 7.12,39.48c2.37,1.51 21.62,-2.07 27.16,-1.67c3.341,0.248 6.52173,1.53077 9.1,3.67c3.77,-0.07 5.24,1.58 5.24,1.58c0,0 26.57,10.34 31.57,3.12c1.24,-1.81 3.6,0.5 3.6,0.5c4.36021,1.17401 8.50078,3.04841 12.26,5.55c13.23,8.36 19.52,67.66 11.61,73.18z" fill="#2980b9" stroke="none" stroke-linecap="butt" stroke-linejoin="miter"/><g clip-path="url(#clip-3)" stroke="none" stroke-linecap="butt" stroke-linejoin="miter"><path d="M292.45,118.69c0.06,-2.27 0.14,-3.63 0.14,-3.63c-47.47,-15.83 -31.68,-22.55 -32.07,-40c-0.39,-17.45 4.74,-29.5 4.74,-29.5v-4.92h11.48c0,0 4.74,38 7.12,39.49c5.34,8.21 -4.45,17.85 -1,19.4c3.45,1.55 11.82,-6 11.82,-6c0.88971,8.45197 0.13241,16.99627 -2.23,25.16z" fill-opacity="0.7" fill="#000000" opacity="0.2"/><path d="M382.26,141.93c0,0 -2.26,16.41 -3.45,24.61c-6.81,-2.71 -13.81,-14.93 -13.81,-14.93l-8.14,11.17c7.08,16.22 1.68,12.68 1.68,12.68c-24.26,-0.12 -62.38,-19.26 -62.38,-19.26c-0.82459,-2.12765 -1.45059,-4.32702 -1.87,-6.57c24.86,19.87 57,22.18 59.86,22.35c-4.87,-0.33 -21.36,-5.39 -23.31,-9.2c-1.95,-3.81 16,-0.28 20.71,-1.07c4.71,-0.79 9.79,-16 9.79,-16c-3.52,0 -7.95,-12.66 -7.54,-14.23c0.41,-1.57 6.47,-1.22 6.47,-1.22c0,0 -3.31,-3.15 -2.39,-7.27c0.92,-4.12 -0.73,-10.32 2.54,-9.53c3.27,0.79 2.47,6.29 2.47,6.29z" fill-opacity="0.7" fill="#000000" opacity="0.2"/></g><path d="M384.38,166.1c-7.91,5.52 -19.38,-14.48 -19.38,-14.48l-8.15,11.21c7.08,16.22 1.68,12.67 1.68,12.67c-24.26,-0.12 -62.38,-19.26 -62.38,-19.26c-5.14,-12.66 -3.56,-41.14 -3.56,-41.14c-47.47,-15.86 -31.67,-22.6 -32.07,-40c-0.4,-17.4 4.74,-29.5 4.74,-29.5v-4.91h11.46c0,0 4.75,37.97 7.12,39.48c2.37,1.51 21.62,-2.07 27.16,-1.67c3.341,0.248 6.52173,1.53077 9.1,3.67c3.77,-0.07 5.24,1.58 5.24,1.58c0,0 26.57,10.34 31.57,3.12c1.24,-1.81 3.6,0.5 3.6,0.5c4.36021,1.17401 8.50078,3.04841 12.26,5.55c13.23,8.36 19.52,67.66 11.61,73.18z" fill="#ba296c" stroke="#263238" stroke-linecap="round" stroke-linejoin="round"/><path d="M325.38,83.74c0,0 6.96,0.58 8.57,-0.32c0.06804,-0.04373 0.13167,-0.09397 0.19,-0.15c0.83,-0.82 1.73,-4 -0.27,-8c-0.66144,-1.2991 -1.49938,-2.50049 -2.49,-3.57c-5.34,-5.87 22.23,-8.87 22.23,-8.87c0,0 -6.22,11.92 -3.7,20.92c0.75,2.86 7,3.12 7,3.12c0,0 -11.07,13.58 -22.6,12.66c-10.52,-0.84 -8.93,-15.79 -8.93,-15.79z" fill="#ffffff" stroke="#263238" stroke-linecap="round" stroke-linejoin="round"/><path d="M337.14,95.2l3.32,-2c4.40407,0.07165 8.77333,-0.79063 12.82,-2.53" fill="none" stroke="#263238" stroke-linecap="round" stroke-linejoin="round"/><path d="M325.39,88.38c2.03,3.23 7.84,4.54 7.84,4.54l0.44,2.26" fill="none" stroke="#263238" stroke-linecap="round" stroke-linejoin="round"/><path d="M333.83,75.27c5.07,-3.11 12,-1.65 12,-1.65c0,0 -3.09,11.18 -11.73,9.66c0.83,-0.83 1.74,-4.03 -0.27,-8.01z" fill="#263238" stroke="none" stroke-linecap="butt" stroke-linejoin="miter"/><path d="M351.34,68.71c-0.51,3.44 -10.37,11.77 -13.14,12.3c-3.55,0.66 -11.48,-6.79 -12.2,-9.34c-1.94,-6.89 -11,-34.67 7.8,-37.42c21.2,-3.12 18.89,25.28 17.54,34.46z" fill="#ffffff" stroke="#263238" stroke-linecap="round" stroke-linejoin="round"/><path d="M332.3,64.53c0,0 -4.2,-0.75 -2.55,-2.43c2.55,-2.61 1.47,-6.31 1.47,-7.61" fill="none" stroke="#263238" stroke-linecap="round" stroke-linejoin="round"/><path d="M324,51.9c1.51732,-1.99455 3.86432,-3.18463 6.37,-3.23" fill="none" stroke="#263238" stroke-linecap="round" stroke-linejoin="round"/><path d="M336.86,48.39c2.41157,-0.31806 4.86285,-0.13421 7.2,0.54" fill="none" stroke="#263238" stroke-linecap="round" stroke-linejoin="round"/><path d="M327.54,55.98c0.55,-0.11 1.13,0.42 1.27,1.19c0.14,0.77 -0.18,1.47 -0.74,1.58c-0.56,0.11 -1.12,-0.43 -1.27,-1.19c-0.15,-0.77 0.19,-1.47 0.74,-1.58z" fill="#263238" stroke="none" stroke-linecap="butt" stroke-linejoin="miter"/><path d="M339.73,54.5c0.56,-0.1 1.13,0.43 1.27,1.2c0.21795,0.63712 -0.10357,1.33301 -0.73,1.58c-0.56,0.11 -1.13,-0.43 -1.27,-1.2c-0.21254,-0.63683 0.1073,-1.32907 0.73,-1.58z" fill="#263238" stroke="none" stroke-linecap="butt" stroke-linejoin="miter"/><path d="M332.3,69.63c3.05311,-0.67621 5.92698,-1.99553 8.43,-3.87c0,0 0.75,4.81 -3.23,6.15c-3.05,1 -4.54,-2.43 -4.54,-2.43" fill="none" stroke="#263238" stroke-linecap="round" stroke-linejoin="round"/><path d="M318.9,77.28c-12.76,-16.89 -7.52,-46.37 16.42,-46.48l22.55,11.47l-4.59,13.62c-12.5,-3.99 -12.5,-17.78 -12.5,-17.78c-24.78,1.39 -21.88,39.17 -21.88,39.17z" fill="#263238" stroke="none" stroke-linecap="butt" stroke-linejoin="miter"/><path d="M350.68,56.69c-0.29,-1.53 3.28,-5.76 4.8,-3.36c2.6,4.11 1.27,8 -0.94,9.63c-1,0.74 -2.2,2.08 -3.22,1" fill="#ffffff" stroke="#263238" stroke-linecap="round" stroke-linejoin="round"/><path d="M353.28,66.96c-6.49,-1.2 -6.99,-19.45 0.51,-18.72c10.76,1.04 6.78,20.08 -0.51,18.72z" fill="#757575" stroke="#263238" stroke-linecap="round" stroke-linejoin="round"/><path d="M354.35,52.71c0,0 -1,-21.17 -24,-20.9c0,0 3.47,-2.7 10.09,-1c6.62,1.7 17.41,6.73 17.41,21.91z" fill="#ba296c" stroke="#263238" stroke-linecap="round" stroke-linejoin="round"/><path d="M355.19,64.46c-4.74,-0.89 -5.1,-14.23 0.37,-13.7c7.88,0.76 4.97,14.69 -0.37,13.7z" fill="#ba296c" stroke="#263238" stroke-linecap="round" stroke-linejoin="round"/><g fill="none" stroke="#ffffff" stroke-linecap="round" stroke-linejoin="round" opacity="0.2"><path d="M324.41,195.86c-2.96,-11.47 1.21,-26.08 1.21,-26.08"/><path d="M311.38,192.67c3.56,0.59 11.7,6.33 11.7,6.33"/><path d="M309.01,201.6c4.15,-2.18 19.58,0 19.58,0"/><path d="M325.62,199c0,0 7.4,-3.36 11.52,-4.15"/><path d="M323.08,180.74c-5.31,-2.85 -1.41,-11.57 -1.41,-11.57"/><path d="M290.14,244.72c-0.21,0.79 5.08,3.17 5.08,3.17c0,0 -2.12,5.53 -5.08,6.33"/><path d="M347.63,254.22c-2.16,5.8 -8,10 -8,10"/><path d="M286.66,292.72c0,0 7.36,7.91 8.56,10.81"/></g><path d="M381.13,189.14l4.48,37.39c0.123,1.00054 -0.39234,1.9713 -1.29,2.43l-36.32,18.76c-0.57522,0.28578 -1.25268,0.27791 -1.8211,-0.02116c-0.56842,-0.29907 -0.95862,-0.85292 -1.0489,-1.48884l-5,-38.2c-0.13058,-1.02834 0.40829,-2.02564 1.34,-2.48l36.82,-17.94c0.57835,-0.27412 1.25295,-0.25491 1.81475,0.05171c0.5618,0.30661 0.94291,0.86359 1.02524,1.49829z" fill="#bfbfbf" stroke="#263238" stroke-linecap="round" stroke-linejoin="round"/><path d="M383.13,190.33l4.48,37.38c0.12141,1.00286 -0.39288,1.97563 -1.29,2.44l-36.32,18.75c-0.57375,0.28558 -1.24961,0.27891 -1.81761,-0.01796c-0.56799,-0.29686 -0.95932,-0.84795 -1.05239,-1.48204l-5,-38.21c-0.13546,-1.02654 0.39994,-2.02488 1.33,-2.48l36.82,-17.93c0.57929,-0.27829 1.25701,-0.26125 1.82158,0.0458c0.56457,0.30704 0.94719,0.86669 1.02842,1.5042z" fill="#bfbfbf" stroke="#263238" stroke-linecap="round" stroke-linejoin="round"/><path d="M364.36,215.15c-0.0027,-0.37875 -0.03615,-0.75666 -0.1,-1.13c0.42825,-0.45965 1.0221,-0.72958 1.65,-0.75c1.68,0 3,2.08 3,4.65c0,2.57 -1.35,4.65 -3,4.65c-1.42,0 -2.6,-1.5 -2.93,-3.52c0.94271,-1.07516 1.43669,-2.4712 1.38,-3.9z" fill="#ba296c" stroke="#263238" stroke-linecap="round" stroke-linejoin="round"/><path d="M384.77,180.74l-1.06,40.25c0,0 2.62,9.16 2.38,11.6c-0.24,2.44 -2.64,3.7 -2.64,5.54c0,1.84 -3.69,3.16 -5.54,3.69c-1.85,0.53 -3.96,4.48 -4.75,2.9c-1.01339,-1.60166 -2.17878,-3.10192 -3.48,-4.48c-4.01,5.54 -6.27,5.02 -4.8,3.18c1.47,-1.84 4.33,-11.35 5.91,-13.2c1.58,-1.85 3.69,-7.65 3.69,-7.65l-3.69,-43.52z" fill="#ffffff" stroke="#263238" stroke-linecap="round" stroke-linejoin="round"/><path d="M387.61,141.84c1.36,13 0.24,28.77 0.24,28.77l-2.31,20.21c0,0 1.15,3.94 0.28,5c-2.9,3.7 -9.23,-0.72 -14.24,-4.41c-5.01,-3.69 -2,-6.07 -2,-6.07c0,0 -0.9,-7.65 -2.64,-12.39c-1.74,-4.74 -3.91,-32.63 -4.06,-37.46c0,0 -0.72,-7.91 -2.47,-10c-1.75,-2.09 12.23,-17.93 16.45,-18.46" fill="#ba296c" stroke="#263238" stroke-linecap="round" stroke-linejoin="round"/><path d="M293.78,86.74c0,0 3.22,15.26 -1.19,28.32" fill="none" stroke="#263238" stroke-linecap="round" stroke-linejoin="round"/><path d="M356.85,162.79c-6.17065,2.81839 -13.09899,3.52141 -19.71,2" fill="none" stroke="#263238" stroke-linecap="round" stroke-linejoin="round"/><path d="M335.01,103.5c-14.16,-1.18 -14.91,-21.33 -14.91,-21.33" fill="none" stroke="#263238" stroke-linecap="round" stroke-linejoin="round"/><path d="M283.86,80.17c0,0 1.22,6.16 -2.74,8.21c-3.96,2.05 0,-4.1 0,-4.1" fill="none" stroke="#263238" stroke-linecap="round" stroke-linejoin="round"/><path d="M381.13,189.14c-4.73,1.18 -11.55,-3.76 -11.55,-3.76" fill="none" stroke="#263238" stroke-linecap="round" stroke-linejoin="round"/><path d="M274.39,48.22c-1.97,0.51 -9.13,-2.62 -9.13,-2.62" fill="none" stroke="#263238" stroke-linecap="round" stroke-linejoin="round"/><path d="M314.16,130v0l2,-5.07l1.62,0.38l-1.75,7.41l-1.1,-0.26l1.25,-5.31v0l-2,5.13l-1.1,-0.26l0.39,-5.44v0l-1.24,5.23l-1,-0.24l1.74,-7.4l1.62,0.38z" fill="#263238" stroke="none" stroke-linecap="butt" stroke-linejoin="miter"/><path d="M318.15,127.23c0.09876,-0.68091 0.57307,-1.24793 1.22583,-1.46543c0.65276,-0.2175 1.37237,-0.0483 1.85981,0.43729c0.48744,0.4856 0.65938,1.20456 0.44436,1.85814l-0.91,3.85c-0.09876,0.68091 -0.57306,1.24794 -1.22582,1.46544c-0.65276,0.2175 -1.37237,0.0483 -1.85981,-0.4373c-0.48744,-0.48559 -0.65938,-1.20456 -0.44436,-1.85814zM318.39,131.42c-0.13,0.53 0.06,0.79 0.43,0.88c0.37,0.09 0.65,-0.06 0.77,-0.59l1,-4c0.12,-0.53 -0.07,-0.78 -0.44,-0.87c-0.37,-0.09 -0.64,0.06 -0.77,0.59z" fill="#263238" stroke="none" stroke-linecap="butt" stroke-linejoin="miter"/><path d="M323.43,128.75v0l-1.26,5.37l-1.05,-0.25l1.75,-7.4l1.46,0.34l0.13,4.71v0l1,-4.43l1,0.25l-1.75,7.4l-1.19,-0.28z" fill="#263238" stroke="none" stroke-linecap="butt" stroke-linejoin="miter"/><path d="M327.36,127.53l1.84,0.43c0.50552,0.06145 0.95328,0.35562 1.21035,0.79521c0.25708,0.43959 0.29394,0.97406 0.09965,1.44478l-0.89,3.74c-0.03724,0.50498 -0.30706,0.96398 -0.73017,1.24213c-0.42311,0.27815 -0.95147,0.34389 -1.42983,0.17787l-1.84,-0.43zM328.28,128.86l-1.28,5.28l0.66,0.16c0.37,0.09 0.63,-0.05 0.76,-0.58l0.91,-3.85c0.12,-0.53 -0.06,-0.77 -0.43,-0.86z" fill="#263238" stroke="none" stroke-linecap="butt" stroke-linejoin="miter"/><path d="M333.69,136.83l-1.18,-0.28l0.12,-1.39l-1.43,-0.34l-0.52,1.3l-1.07,-0.25l2.93,-7.12l1.71,0.4zM331.58,133.83l1.13,0.26l0.33,-3.87v0z" fill="#263238" stroke="none" stroke-linecap="butt" stroke-linejoin="miter"/><path d="M335.38,134.64l-0.31,-5.3l1.22,0.29l0.08,3.58v0l1.67,-3.16l1.11,0.26l-2.63,4.6l-0.58,2.46l-1.16,-0.28z" fill="#263238" stroke="none" stroke-linecap="butt" stroke-linejoin="miter"/><path d="M320.7,114.2l1.17,0.27l-1.75,7.4l-1.12,-0.27z" fill="#263238" stroke="none" stroke-linecap="butt" stroke-linejoin="miter"/><path d="M332.23,121.93c-1.32344,1.06597 -2.86737,1.82428 -4.52,2.22l-0.32,0.08l-0.26,-0.21c-1.33409,-1.05158 -2.41701,-2.3873 -3.17,-3.91c-1.08,-2.49 0.05,-4.7 2.05,-4.86c1.30129,-0.13174 2.51943,0.65818 2.93,1.9c0.90173,-0.94931 2.33694,-1.15611 3.47,-0.5c1.72,0.98 1.84,3.47 -0.18,5.28z" fill="#263238" stroke="none" stroke-linecap="butt" stroke-linejoin="miter"/><path d="M271.5,21.33c0.92,1.79 2,4.29 1.58,5.08c-0.42,0.79 -3.43,4.9 -2.38,7.4" fill="none" stroke="#263238" stroke-linecap="round" stroke-linejoin="round"/><path d="M261.87,27.38c0,0 -2.38,-0.61 -3.56,0.84c-0.61147,0.83132 -1.75506,1.0609 -2.64,0.53l1.06,-3" fill="none" stroke="#263238" stroke-linecap="round" stroke-linejoin="round"/><path d="M269.83,24.48c0.05,-0.21 -1.26,-1.22 -4.57,-0.84c-5.53,0.69 -0.89,-2.31 -0.89,-2.31" fill="none" stroke="#263238" stroke-linecap="round" stroke-linejoin="round"/><path d="M266.68,26.12c-0.92654,-0.48275 -1.95525,-0.7365 -3,-0.74c-0.47,0.05 -2.89,0.43 -4.05,-0.51c-1.16,-0.94 0.84,-2.54 0.84,-2.54" fill="none" stroke="#263238" stroke-linecap="round" stroke-linejoin="round"/></g><g><path d="M101.3,368.41c-5.11415,0 -9.26,0 -9.26,0v-352c0,0 4.14584,0 9.26,0h161.95c5.11415,0 9.26,0 9.26,0v352c0,0 -4.14585,0 -9.26,0z" fill="#ffffff" stroke="#263238" stroke-width="1" stroke-linecap="round" stroke-linejoin="round"/><path d="M168.32,25.2c0.00405,1.02014 -0.60736,1.9421 -1.54869,2.3353c-0.94133,0.3932 -2.02686,0.18007 -2.74965,-0.53984c-0.72279,-0.71992 -0.94023,-1.8046 -0.55078,-2.74749c0.38945,-0.94289 1.30897,-1.55795 2.32912,-1.55796c1.38786,-0.00001 2.51449,1.12215 2.52,2.51z" fill="#ba296c" stroke="#263238" stroke-width="1" stroke-linecap="round" stroke-linejoin="round"/><path d="M201.26,25.2c0.00405,0.63995 -0.37832,1.21913 -0.9684,1.46684c-0.59008,0.24771 -1.27129,0.11501 -1.72525,-0.33607c-0.45396,-0.45108 -0.59097,-1.13144 -0.34701,-1.72308c0.24395,-0.59164 0.8207,-0.97768 1.46066,-0.9777c0.86872,-0.00002 1.5745,0.7013 1.58,1.57z" fill="#ba296c" stroke="#263238" stroke-width="1" stroke-linecap="round" stroke-linejoin="round"/><path d="M173.26,26.09c-0.40869,0 -0.74,0 -0.74,0v-1.78c0,0 0.33131,0 0.74,0h19.18c0.40869,0 0.74,0 0.74,0v1.78c0,0 -0.33131,0 -0.74,0z" fill="#ba296c" stroke="#263238" stroke-width="1" stroke-linecap="round" stroke-linejoin="round"/><path d="M267.29,28.3v329.06c0,3.36341 -2.72659,6.09 -6.09,6.09h-157.85c-3.36342,0 -6.09,-2.72658 -6.09,-6.09v-329.06c0,-1.61425 0.64194,-3.16224 1.78432,-4.30275c1.14239,-1.14051 2.69142,-1.77991 4.30567,-1.77725h32.4c2.13311,-0.00157 4.04278,1.32204 4.79,3.32l1.38,3.7c0.74024,2.00033 2.6471,3.32875 4.78,3.33h71.14c2.13566,0.00001 4.04608,-1.32811 4.79,-3.33l1.38,-3.7c0.74113,-1.99826 2.64873,-3.32321 4.78,-3.32h32.41c3.35951,-0.00001 6.08449,2.72049 6.09,6.08z" fill="#2980b9" stroke="none" stroke-width="1" stroke-linecap="butt" stroke-linejoin="miter" opacity="0.4"/><path d="M267.29,338.19v19.17c0.00266,1.61598 -0.63811,3.16654 -1.78079,4.30921c-1.14267,1.14267 -2.69324,1.78344 -4.30921,1.78078h-157.85c-3.36342,0 -6.09,-2.72658 -6.09,-6.09v-19.17z" fill="#2980b9" stroke="none" stroke-width="1" stroke-linecap="butt" stroke-linejoin="miter"/><path d="M267.29,28.31v15.12h-170v-15.12c0,-3.36341 2.72658,-6.09 6.09,-6.09h32.4c2.13402,-0.00448 4.04519,1.32017 4.79,3.32l1.37,3.7c0.74633,2.00004 2.65525,3.32712 4.79,3.33h71.14c2.13475,-0.00288 4.04367,-1.32997 4.79,-3.33l1.37,-3.7c0.74722,-1.99796 2.65689,-3.32157 4.79,-3.32h32.38c1.61598,-0.00266 3.16654,0.63811 4.30921,1.78079c1.14267,1.14268 1.78345,2.69323 1.78079,4.30921z" fill="#2980b9" stroke="none" stroke-width="1" stroke-linecap="butt" stroke-linejoin="miter"/><path d="M267.29,28.26v329.06c-0.00552,3.35951 -2.73049,6.08 -6.09,6.08h-157.85c-1.61425,0.00266 -3.16329,-0.63674 -4.30567,-1.77725c-1.14239,-1.14051 -1.78432,-2.6885 -1.78432,-4.30275v-329.06c0,-3.36341 2.72658,-6.09 6.09,-6.09h32.4c2.13565,-0.00002 4.04608,1.3281 4.79,3.33l1.38,3.69c0.74024,2.00033 2.6471,3.32875 4.78,3.33h71.14c2.13566,0.00001 4.04608,-1.32811 4.79,-3.33l1.37,-3.69c0.74024,-2.00033 2.6471,-3.32874 4.78,-3.33h32.42c3.36341,0 6.09,2.72659 6.09,6.09z" fill="#ba296c" stroke="#263238" stroke-width="1" stroke-linecap="round" stroke-linejoin="round"/><path d="M146.49,260.24c-6.66608,0 -12.07,0 -12.07,0v-28.97c0,0 5.40393,0 12.07,0h71.56c6.66608,0 12.07,0 12.07,0v28.97c0,0 -5.40392,0 -12.07,0z" fill="#263238" stroke="none" stroke-width="1" stroke-linecap="butt" stroke-linejoin="miter"/><path d="M158.56,242.26v1.79c0,2.21 -1.07,3.41 -3.23,3.41h-1v5.18h-2.17v-13.79h3.2c2.13,0 3.2,1.2 3.2,3.41zM154.3,240.82v4.67h1c0.69,0 1.06,-0.32 1.06,-1.3v-2.07c0,-1 -0.37,-1.3 -1.06,-1.3z" fill="#263238" stroke="none" stroke-width="1" stroke-linecap="butt" stroke-linejoin="miter"/><path d="M155.29936,240.77c0.69,0 1.09591,0.31456 1.09591,1.31456v2.14088c0,0.98 -0.40591,1.31456 -1.09591,1.31456l-1.01954,-0.00425v-4.76149z" data-paper-data="{&quot;noHover&quot;:false,&quot;origItem&quot;:[&quot;Path&quot;,{&quot;applyMatrix&quot;:true,&quot;segments&quot;:[[154.3,240.82],[154.3,245.49],[[155.3,245.49],[0,0],[0.69,0]],[[156.36,244.19],[0,0.98],[0,0]],[[156.36,242.12],[0,0],[0,-1]],[[155.3,240.82],[0.69,0],[0,0]]],&quot;closed&quot;:true,&quot;fillColor&quot;:[0,0,0,1]}]}" fill="#263238" stroke="none" stroke-width="0.5" stroke-linecap="butt" stroke-linejoin="miter"/><path d="M161.63,238.85v10.64c0,1 0.43,1.34 1.12,1.34c0.69,0 1.13,-0.36 1.13,-1.34v-10.64h2.05v10.5c0,2.21 -1.11,3.47 -3.24,3.47c-2.13,0 -3.23,-1.26 -3.23,-3.47v-10.5z" fill="#263238" stroke="none" stroke-width="1" stroke-linecap="butt" stroke-linejoin="miter"/><path d="M171.94,252.64c-0.18238,-0.54699 -0.25045,-1.12561 -0.2,-1.7v-2.16c0,-1.28 -0.43,-1.76 -1.42,-1.76h-0.75v5.62h-2.16v-13.79h3.27c2.24,0 3.21,1 3.21,3.17v1.08c0.15542,1.13258 -0.41129,2.24205 -1.42,2.78v0c1.08,0.45 1.44,1.48 1.44,2.92v2.2c-0.03835,0.56982 0.03991,1.14146 0.23,1.68zM169.57,240.82v4.23h0.85c0.81,0 1.3,-0.35 1.3,-1.45v-1.36c0,-1 -0.34,-1.42 -1.1,-1.42z" fill="#263238" stroke="none" stroke-width="1" stroke-linecap="butt" stroke-linejoin="miter"/><path d="M181.61,247.5v1.83c0,2.2 -1.1,3.47 -3.23,3.47c-2.13,0 -3.23,-1.27 -3.23,-3.47v-7.17c0,-2.21 1.1,-3.47 3.23,-3.47c2.13,0 3.23,1.26 3.23,3.47v1.34h-2.05v-1.5c0,-1 -0.43,-1.36 -1.12,-1.36c-0.69,0 -1.13,0.38 -1.13,1.36v7.45c0,1 0.44,1.34 1.13,1.34c0.69,0 1.12,-0.36 1.12,-1.34v-2z" fill="#263238" stroke="none" stroke-width="1" stroke-linecap="butt" stroke-linejoin="miter"/><path d="M185.1,252.64h-2.17v-13.79h2.17v5.91h2.46v-5.91h2.21v13.79h-2.21v-5.91h-2.46z" fill="#263238" stroke="none" stroke-width="1" stroke-linecap="butt" stroke-linejoin="miter"/><path d="M198.36,252.64h-2.19l-0.37,-2.5h-2.66l-0.38,2.5h-2l2.24,-13.79h3.17zM193.36,248.27h2.09l-1,-7v0z" fill="#263238" stroke="none" stroke-width="1" stroke-linecap="butt" stroke-linejoin="miter"/><path d="M202.28,238.69c2.11,0 3.19,1.26 3.19,3.47v0.43h-2.05v-0.59c0,-1 -0.39,-1.36 -1.08,-1.36c-0.69,0 -1.09,0.38 -1.09,1.36c0,0.98 0.44,1.75 1.86,3c1.81,1.6 2.38,2.74 2.38,4.32c0,2.2 -1.1,3.47 -3.23,3.47c-2.13,0 -3.23,-1.27 -3.23,-3.47v-0.85h2.05v1c0,1 0.43,1.34 1.12,1.34c0.69,0 1.12,-0.36 1.12,-1.34c0,-0.98 -0.43,-1.76 -1.85,-3c-1.81,-1.59 -2.38,-2.74 -2.38,-4.31c0,-2.16 1.08,-3.47 3.19,-3.47z" fill="#263238" stroke="none" stroke-width="1" stroke-linecap="butt" stroke-linejoin="miter"/><path d="M208.9,244.66h3v2h-3v4h3.74v2h-5.91v-13.81h5.91v2h-3.74z" fill="#263238" stroke="none" stroke-width="1" stroke-linecap="butt" stroke-linejoin="miter"/><path d="M202.29,183.63h-40l1,-0.41c4.81707,-1.97499 7.97314,-6.65384 8,-11.86v-14.74h22v14.65c-0.00412,5.23729 3.15627,9.95812 8,11.95z" fill="#ffffff" stroke="none" stroke-width="1" stroke-linecap="butt" stroke-linejoin="miter"/><g clip-path="url(#clip-4)" stroke="none" stroke-width="1" stroke-linecap="butt" stroke-linejoin="miter"><path d="M193.26,156.62v12.81c-7.24571,1.41057 -14.61936,2.05744 -22,1.93v-14.74z" fill-opacity="0.7" fill="#000000" opacity="0.3"/></g><path d="M202.29,183.63h-40l1,-0.41c4.81707,-1.97499 7.97314,-6.65384 8,-11.86v-14.74h22v14.65c-0.00412,5.23729 3.15627,9.95812 8,11.95z" fill="none" stroke="#263238" stroke-width="1" stroke-linecap="round" stroke-linejoin="round"/><path d="M137.54,164.53c-1.65686,0 -3,0 -3,0v-71.18c0,0 1.34314,0 3,0h89.46c1.65686,0 3,0 3,0v71.18c0,0 -1.34314,0 -3,0z" fill="#ffffff" stroke="#263238" stroke-width="1" stroke-linecap="round" stroke-linejoin="round"/><path d="M138.34,159.14v-60.4h87.86v60.4z" fill="#bfbfbf" stroke="none" stroke-width="1" stroke-linecap="butt" stroke-linejoin="miter"/><g clip-path="url(#clip-5)" stroke="none" stroke-width="1" stroke-linecap="butt" stroke-linejoin="miter"><path d="M199.37,98.74c0,0 -21.86,41.27 -61,46.39v-46.39z" fill="#ffffff" opacity="0.4"/><path d="M226.2,120.08v39.06h-42.3c6.47,-21.26 28.28,-33.29 42.3,-39.06z" fill="#ffffff" opacity="0.4"/></g><path d="M138.34,159.14v-60.4h87.86v60.4z" fill="none" stroke="#263238" stroke-width="1" stroke-linecap="round" stroke-linejoin="round"/><path d="M162.06,181.14h40.42c1.10457,0 2,0.89543 2,2v3.72h-44.37v-3.72c-0.00034,-1.08533 0.865,-1.97287 1.95,-2z" fill="#ffffff" stroke="#263238" stroke-width="1" stroke-linecap="round" stroke-linejoin="round"/><path d="M126.07,218.92v-19.95h19.95v19.95z" fill="#bfbfbf" stroke="#263238" stroke-width="1" stroke-linecap="round" stroke-linejoin="round"/><path d="M149.19,218.92v-19.95h19.95v19.95z" fill="#bfbfbf" stroke="#263238" stroke-width="1" stroke-linecap="round" stroke-linejoin="round"/><path d="M172.3,218.92v-19.95h19.95v19.95z" fill="#bfbfbf" stroke="#263238" stroke-width="1" stroke-linecap="round" stroke-linejoin="round"/><path d="M195.41,218.92v-19.95h19.95v19.95z" fill="#bfbfbf" stroke="#263238" stroke-width="1" stroke-linecap="round" stroke-linejoin="round"/><path d="M218.53,218.92v-19.95h19.95v19.95z" fill="#bfbfbf" stroke="#263238" stroke-width="1" stroke-linecap="round" stroke-linejoin="round"/><path d="M243.21,205.96l2.98,2.98l-2.98,2.99" fill="none" stroke="#263238" stroke-width="1" stroke-linecap="round" stroke-linejoin="round"/><path d="M121.34,211.93l-2.99,-2.99l2.99,-2.98" fill="none" stroke="#263238" stroke-width="1" stroke-linecap="round" stroke-linejoin="round"/><path d="M226.55,79.9l4.49,-0.95l2.43,3.9l4.59,0.19l1.38,4.39l4.4,1.33l0.25,4.58l3.92,2.39l-0.9,4.5l3.21,3.28l-1.99,4.14l2.3,3.98l-2.96,3.52l1.23,4.42l-3.74,2.67l0.09,4.59l-4.28,1.66l-1.06,4.47l-4.56,0.54l-2.13,4.06l-4.55,-0.61l-3.08,3.41l-4.25,-1.73l-3.83,2.54l-3.7,-2.73l-4.33,1.51l-2.9,-3.57l-4.58,0.38l-1.92,-4.17l-4.53,-0.77l-0.82,-4.52l-4.2,-1.87l0.34,-4.58l-3.6,-2.86l1.45,-4.36l-2.77,-3.66l2.49,-3.85l-1.77,-4.24l3.37,-3.12l-0.66,-4.54l4.04,-2.18l0.48,-4.57l4.46,-1.1l1.61,-4.3l4.59,0.04l2.63,-3.77l4.44,1.18l3.47,-3l4.01,2.25l4.12,-2.04z" fill="#932056" stroke="#263238" stroke-width="1" stroke-linecap="round" stroke-linejoin="round"/><path d="M202.11,108.62l-0.6,2.1c-0.46,1.62 0.08,2.4 1.22,2.72c1.14,0.32 2,-0.05 2.46,-1.67l1.42,-5c0.46,-1.62 -0.08,-2.43 -1.21,-2.75c-1.13,-0.32 -2,0.09 -2.48,1.7l-0.19,0.68l-3.36,-0.95l4.38,-12.95l9.37,2.67l-0.92,3.23l-6.2,-1.76l-1.83,5.36h0.07c0.9406,-0.90327 2.30918,-1.20096 3.54,-0.77c2.61,0.74 3.42,3 2.47,6.29l-1.43,5c-1,3.63 -3.43,5.18 -6.93,4.19c-3.5,-0.99 -4.71,-3.58 -3.68,-7.2l0.53,-1.88z" fill="#ffffff" stroke="none" stroke-width="1" stroke-linecap="butt" stroke-linejoin="miter"/><path d="M214.23,101.37c1,-3.62 3.53,-5.14 7,-4.15c3.47,0.99 4.81,3.6 3.78,7.22l-3.35,11.77c-1,3.62 -3.52,5.15 -7,4.16c-3.48,-0.99 -4.82,-3.61 -3.79,-7.23zM214.38,114.37c-0.46,1.62 0.07,2.43 1.2,2.75c1.13,0.32 2,-0.09 2.48,-1.7l3.48,-12.22c0.46,-1.62 -0.08,-2.44 -1.21,-2.76c-1.13,-0.32 -2,0.09 -2.48,1.71z" fill="#ffffff" stroke="none" stroke-width="1" stroke-linecap="butt" stroke-linejoin="miter"/><path d="M228.53,101.56c0.31204,-1.10457 1.46043,-1.74704 2.565,-1.435c1.10457,0.31204 1.74704,1.46043 1.435,2.565l-1.25,4.31c-0.31204,1.10457 -1.46043,1.74704 -2.565,1.435c-1.10457,-0.31204 -1.74704,-1.46043 -1.435,-2.565zM228.59,106.34c-0.16,0.59 0,0.9 0.44,1c0.44,0.1 0.75,-0.05 0.91,-0.63l1.28,-4.51c0.17,-0.58 0,-0.9 -0.44,-1c-0.44,-0.1 -0.74,0 -0.91,0.63zM236.27,101.59l1.22,0.35l-8.91,11.66l-1.22,-0.35zM233.68,108.22c0.31204,-1.10457 1.46043,-1.74704 2.565,-1.435c1.10457,0.31204 1.74704,1.46043 1.435,2.565l-1.23,4.31c-0.31204,1.10457 -1.46043,1.74704 -2.565,1.435c-1.10457,-0.31204 -1.74704,-1.46043 -1.435,-2.565zM233.74,113c-0.17,0.58 0,0.89 0.44,1c0.44,0.11 0.74,-0.06 0.91,-0.64l1.28,-4.5c0.16,-0.58 0,-0.9 -0.44,-1c-0.44,-0.1 -0.75,0 -0.91,0.64z" fill="#ffffff" stroke="none" stroke-width="1" stroke-linecap="butt" stroke-linejoin="miter"/><path d="M223.81,116.63c0.1283,-0.70361 0.64278,-1.27452 1.32928,-1.47511c0.68651,-0.20059 1.42743,0.00353 1.91437,0.52738c0.48694,0.52385 0.63647,1.27768 0.38635,1.94773l-1.12,4c-0.1283,0.70361 -0.64277,1.27452 -1.32928,1.47511c-0.68651,0.20059 -1.42743,-0.00352 -1.91437,-0.52737c-0.48694,-0.52385 -0.63647,-1.27769 -0.38635,-1.94774zM223.86,121c-0.15,0.54 0,0.82 0.41,0.93c0.41,0.11 0.68,0 0.83,-0.58l1.17,-4.1c0.15,-0.54 0,-0.82 -0.41,-0.93c-0.41,-0.11 -0.68,0 -0.83,0.58z" fill="#ffffff" stroke="none" stroke-width="1" stroke-linecap="butt" stroke-linejoin="miter"/><path d="M229,119.78l1.54,0.43l-0.31,1.09l-1.54,-0.44l-0.89,3.14l-1.19,-0.34l2.16,-7.6l3.16,0.9l-0.31,1.08l-2,-0.55z" fill="#ffffff" stroke="none" stroke-width="1" stroke-linecap="butt" stroke-linejoin="miter"/><path d="M232.7,120.84l1.54,0.44l-0.31,1.08l-1.54,-0.44l-0.89,3.14l-1.2,-0.34l2.16,-7.6l3.16,0.9l-0.31,1.09l-2,-0.56z" fill="#ffffff" stroke="none" stroke-width="1" stroke-linecap="butt" stroke-linejoin="miter"/><path d="M108.18,286.97v-13.26h148.18v13.26z" fill="#932056" stroke="none" stroke-width="1" stroke-linecap="butt" stroke-linejoin="miter"/><path d="M116.18,298.53c-0.65722,0 -1.19,0 -1.19,0v-2.85c0,0 0.53278,0 1.19,0h108.17c0.65722,0 1.19,0 1.19,0v2.85c0,0 -0.53278,0 -1.19,0z" fill="#932056" stroke="none" stroke-width="1" stroke-linecap="butt" stroke-linejoin="miter"/><path d="M116.18,307.08c-0.65722,0 -1.19,0 -1.19,0v-2.85c0,0 0.53278,0 1.19,0h93.77c0.65722,0 1.19,0 1.19,0v2.85c0,0 -0.53278,0 -1.19,0z" fill="#932056" stroke="none" stroke-width="1" stroke-linecap="butt" stroke-linejoin="miter"/><path d="M201.31,315.63h-84.89c-0.78586,-0.00549 -1.42002,-0.64412 -1.42,-1.43v0c0.00549,-0.78586 0.64412,-1.42002 1.43,-1.42h84.89c0.78424,0 1.42,0.63576 1.42,1.42v0c0.00269,0.38007 -0.14712,0.74537 -0.41587,1.01413c-0.26876,0.26876 -0.63405,0.41856 -1.01413,0.41587z" fill="#932056" stroke="none" stroke-width="1" stroke-linecap="butt" stroke-linejoin="miter"/><path d="M116.18,324.18c-0.65722,0 -1.19,0 -1.19,0v-2.85c0,0 0.53278,0 1.19,0h98.57c0.65722,0 1.19,0 1.19,0v2.85c0,0 -0.53278,0 -1.19,0z" fill="#932056" stroke="none" stroke-width="1" stroke-linecap="butt" stroke-linejoin="miter"/><path d="M236.23,298.53c-0.65722,0 -1.19,0 -1.19,0v-2.85c0,0 0.53278,0 1.19,0h12.13c0.65722,0 1.19,0 1.19,0v2.85c0,0 -0.53278,0 -1.19,0z" fill="#932056" stroke="none" stroke-width="1" stroke-linecap="butt" stroke-linejoin="miter"/><path d="M238.63,307.08c-0.65722,0 -1.19,0 -1.19,0v-2.85c0,0 0.53278,0 1.19,0h9.73c0.65722,0 1.19,0 1.19,0v2.85c0,0 -0.53278,0 -1.19,0z" fill="#932056" stroke="none" stroke-width="1" stroke-linecap="butt" stroke-linejoin="miter"/><path d="M235.03,315.63c-0.65722,0 -1.19,0 -1.19,0v-2.85c0,0 0.53278,0 1.19,0h13.33c0.65722,0 1.19,0 1.19,0v2.85c0,0 -0.53278,0 -1.19,0z" fill="#932056" stroke="none" stroke-width="1" stroke-linecap="butt" stroke-linejoin="miter"/><path d="M244.64,324.18c-0.65722,0 -1.19,0 -1.19,0v-2.85c0,0 0.53278,0 1.19,0h3.73c0.65722,0 1.19,0 1.19,0v2.85c0,0 -0.53278,0 -1.19,0z" fill="#932056" stroke="none" stroke-width="1" stroke-linecap="butt" stroke-linejoin="miter"/><path d="M124.87,68.4c-2.10973,0 -3.82,0 -3.82,0v-9.16c0,0 1.71027,0 3.82,0h114.81c2.10973,0 3.82,0 3.82,0v9.16c0,0 -1.71027,0 -3.82,0z" fill="#932056" stroke="none" stroke-width="1" stroke-linecap="butt" stroke-linejoin="miter"/><path d="M234.54,261.47l3.05,3.05l-1.77,1.78l-3.05,-3.06l-2.78,6.29l-7.04,-17.88l17.88,7.04z" fill="#ffffff" stroke="#263238" stroke-width="1" stroke-linecap="round" stroke-linejoin="round"/></g><g stroke-width="1"><path d="M49.65,350.07c0.63108,-4.29498 2.10974,-8.42163 4.35,-12.14" fill="none" stroke="#263238" stroke-linecap="round" stroke-linejoin="round"/><path d="M95.77,304.85l-7.8,-3.39l3.73,-8.61l5.42,-1.78l2.39,5.17z" fill="#ba296c" stroke="#263238" stroke-linecap="round" stroke-linejoin="round"/><path d="M97.12,291.07c2,-3.73 9,-10.6 13.81,-8.75" fill="none" stroke="#263238" stroke-linecap="round" stroke-linejoin="round"/><path d="M250.68,345.43l6.04,5.99l-6.61,6.66l-5.69,-0.3l-0.35,-5.69z" fill="#ba296c" stroke="#263238" stroke-linecap="round" stroke-linejoin="round"/><path d="M244.42,357.78c0,0 -6.41,9 -13.34,8.18" fill="none" stroke="#263238" stroke-linecap="round" stroke-linejoin="round"/><path d="M448.59,316.14l-4.19,7.4l-8.16,-4.61l-1.21,-5.57l5.39,-1.84z" fill="#ba296c" stroke="#263238" stroke-linecap="round" stroke-linejoin="round"/><path d="M435,313.36c0,0 -6.46,0.43 -10.18,-9.63" fill="none" stroke="#263238" stroke-linecap="round" stroke-linejoin="round"/><path d="M416.72,341.15c3.46,3.97 4.28,11.51 4.28,11.51" fill="none" stroke="#263238" stroke-linecap="round" stroke-linejoin="round"/><path d="M356.33,368.23v-38.46h62.72v38.46z" fill="#bfbfbf" stroke="none" stroke-linecap="butt" stroke-linejoin="miter"/><g clip-path="url(#clip-6)" stroke="none" stroke-linecap="butt" stroke-linejoin="miter"><path d="M419.06,329.77v38.47h-26.12v-30l-26.61,-8.47z" fill-opacity="0.7" fill="#000000" opacity="0.2"/><path d="M392.69,368.24v-39h26.36v39z" fill-opacity="0.7" fill="#000000" opacity="0.2"/></g><path d="M356.33,368.23v-38.46h62.72v38.46z" fill="none" stroke="#263238" stroke-linecap="round" stroke-linejoin="round"/><path d="M392.94,368.24l-15.62,-18.45l1.5,-1.92" fill="none" stroke="#263238" stroke-linecap="round" stroke-linejoin="round"/><path d="M380.49,345.72l12.45,-15.95v29.8" fill="none" stroke="#263238" stroke-linecap="round" stroke-linejoin="round"/><path d="M392.95,363.34v2.32" fill="none" stroke="#263238" stroke-linecap="round" stroke-linejoin="round"/><path d="M359.52,363.69l-3.19,4.54" fill="none" stroke="#263238" stroke-linecap="round" stroke-linejoin="round"/><path d="M366.99,346.25l2.28,3.54l-8.27,11.79" fill="none" stroke="#263238" stroke-linecap="round" stroke-linejoin="round"/><path d="M361.3,337.45l4.12,6.38" fill="none" stroke="#263238" stroke-linecap="round" stroke-linejoin="round"/><path d="M356.33,329.77l2.64,4.09" fill="none" stroke="#263238" stroke-linecap="round" stroke-linejoin="round"/><path d="M366.33,331.09v-30.3h62.72v30.3z" fill="#999999" stroke="none" stroke-linecap="butt" stroke-linejoin="miter"/><g clip-path="url(#clip-7)" stroke="none" stroke-linecap="butt" stroke-linejoin="miter"><path d="M402.95,331.09v-30.3h26.11v30.3z" fill-opacity="0.7" fill="#000000" opacity="0.2"/></g><path d="M366.33,331.09v-30.3h62.72v30.3z" fill="none" stroke="#263238" stroke-linecap="round" stroke-linejoin="round"/><path d="M388.82,316.83l-1.5,-1.51l15.62,-14.53" fill="none" stroke="#263238" stroke-linecap="round" stroke-linejoin="round"/><path d="M402.94,307.62v23.48l-12.45,-12.57" fill="none" stroke="#263238" stroke-linecap="round" stroke-linejoin="round"/><path d="M402.95,304.65v-1.83" fill="none" stroke="#263238" stroke-linecap="round" stroke-linejoin="round"/><path d="M369.52,304.37l-3.19,-3.58" fill="none" stroke="#263238" stroke-linecap="round" stroke-linejoin="round"/><path d="M371,306.03l8.27,9.29l-2.28,2.79" fill="none" stroke="#263238" stroke-linecap="round" stroke-linejoin="round"/><path d="M375.42,320.02l-4.12,5.03" fill="none" stroke="#263238" stroke-linecap="round" stroke-linejoin="round"/><path d="M368.97,327.88l-2.64,3.22" fill="none" stroke="#263238" stroke-linecap="round" stroke-linejoin="round"/><path d="M110.93,368.4v-86.08h25.5v86.08z" fill="#263238" stroke="none" stroke-linecap="butt" stroke-linejoin="miter"/><path d="M124.31,319.12c-2.1,15.86 -4.47,35.63 -4.47,49.28h-12.33v-86.4c0,-1.73969 1.4103,-3.15 3.15,-3.15h15c0,0 0.76,24.41 -1.35,40.27z" fill="#bfbfbf" stroke="none" stroke-linecap="butt" stroke-linejoin="miter"/><g clip-path="url(#clip-8)" stroke="none" stroke-linecap="butt" stroke-linejoin="miter"><path d="M116.63,278.81v89.59h-9.12v-86.4c0,-1.73969 1.4103,-3.15 3.15,-3.15z" fill="#000000" opacity="0.2"/></g><path d="M124.31,319.12c-2.1,15.86 -4.47,35.63 -4.47,49.28h-12.33v-86.4c0,-1.73969 1.4103,-3.15 3.15,-3.15h15c0,0 0.76,24.41 -1.35,40.27z" fill="none" stroke="#263238" stroke-linecap="round" stroke-linejoin="round"/><path d="M116.63,280.98v84.49" fill="#bfbfbf" stroke="#263238" stroke-linecap="round" stroke-linejoin="round"/><path d="M136.38,368.44c0,-13.65 -2.38,-33.42 -4.48,-49.28c-2.1,-15.86 -1.29,-40.31 -1.29,-40.31h5c1.7397,0 3.15,1.4103 3.15,3.15v86.41z" fill="#bfbfbf" stroke="#263238" stroke-linecap="round" stroke-linejoin="round"/><path d="M120.23,311.44v-25.71c0,-0.49153 0.39847,-0.89 0.89,-0.89v0c0.49153,0 0.89,0.39847 0.89,0.89v25.71c0,0.49153 -0.39847,0.89 -0.89,0.89v0c-0.49153,0 -0.89,-0.39846 -0.89,-0.89z" fill="#263238" stroke="none" stroke-linecap="butt" stroke-linejoin="miter"/><path d="M214.4,365.41h-57.07c-0.96259,-0.0532 -1.77593,-0.73234 -2,-1.67l-8.24,-37.74c-0.12342,-0.3994 -0.04566,-0.83384 0.20864,-1.16562c0.2543,-0.33179 0.65361,-0.51977 1.07136,-0.50438h57.07c0.96006,0.05957 1.77012,0.73596 2,1.67l8.23,37.72c0.13081,0.40023 0.05805,0.83911 -0.1949,1.17572c-0.25295,0.33661 -0.65428,0.52859 -1.0751,0.51428z" fill="#bfbfbf" stroke="#263238" stroke-linecap="round" stroke-linejoin="round"/><path d="M215.4,365.41h-57.07c-0.96259,-0.0532 -1.77593,-0.73234 -2,-1.67l-8.24,-37.74c-0.12342,-0.3994 -0.04566,-0.83384 0.20864,-1.16562c0.2543,-0.33179 0.65361,-0.51977 1.07136,-0.50438h57.07c0.96006,0.05957 1.77012,0.73596 2,1.67l8.23,37.72c0.13081,0.40023 0.05805,0.83911 -0.1949,1.17572c-0.25295,0.33661 -0.65428,0.52859 -1.0751,0.51428z" fill="#263238" stroke="none" stroke-linecap="butt" stroke-linejoin="miter"/><path d="M214.36,361.45h-56.71l-2.53,-11.58l-4.86,-22.26h56.71z" fill="#bfbfbf" stroke="none" stroke-linecap="butt" stroke-linejoin="miter"/><path d="M241.48,365.14v1.67l-13.77,1.19h-68.86c-0.78197,-0.00545 -1.41455,-0.63803 -1.42,-1.42v-1.43z" fill="#bfbfbf" stroke="#263238" stroke-linecap="round" stroke-linejoin="round"/><path d="M189.48,365.14v1.67l-13.77,1.19h-16.86c-0.78197,-0.00545 -1.41455,-0.63803 -1.42,-1.42v-1.43z" fill="#999999" stroke="#263238" stroke-linecap="round" stroke-linejoin="round"/><path d="M192.35,327.61c-5.23,8 -16,18.66 -37.23,22.26l-4.86,-22.26z" fill="#ffffff" stroke="none" stroke-linecap="butt" stroke-linejoin="miter" opacity="0.4"/><path d="M114.73,337.94v30.3h-62.72v-30.3z" fill="#757575" stroke="none" stroke-linecap="butt" stroke-linejoin="miter"/><g clip-path="url(#clip-9)" stroke="none" stroke-linecap="butt" stroke-linejoin="miter"><path d="M78.11,337.94v30.3h-26.11v-30.3z" fill="#000000" opacity="0.2"/></g><path d="M114.73,337.94v30.3h-62.72v-30.3z" fill="none" stroke="#263238" stroke-linecap="round" stroke-linejoin="round"/><path d="M92.24,352.19l1.5,1.51l-15.63,14.54" fill="none" stroke="#263238" stroke-linecap="round" stroke-linejoin="round"/><path d="M78.11,361.41v-23.48l12.45,12.57" fill="none" stroke="#263238" stroke-linecap="round" stroke-linejoin="round"/><path d="M78.11,364.38v1.83" fill="none" stroke="#263238" stroke-linecap="round" stroke-linejoin="round"/><path d="M111.54,364.66l3.19,3.58" fill="none" stroke="#263238" stroke-linecap="round" stroke-linejoin="round"/><path d="M110.06,363l-8.28,-9.3l2.29,-2.78" fill="none" stroke="#263238" stroke-linecap="round" stroke-linejoin="round"/><path d="M109.76,343.98l-4.12,5.03" fill="none" stroke="#263238" stroke-linecap="round" stroke-linejoin="round"/><path d="M114.73,337.93l-2.65,3.22" fill="none" stroke="#263238" stroke-linecap="round" stroke-linejoin="round"/><path d="M96.05,337.71c-0.15507,-0.02033 -0.3087,-0.05038 -0.46,-0.09c-2,-0.51 -3.88,-2.94 -5.39,-4.52c-1.13,-1.19 -11.87,-1.19 -13,0c-1.51,1.58 -3.43,4 -5.39,4.52c-0.1513,0.03962 -0.30493,0.06967 -0.46,0.09c-3.8,0.4 1.85,-13.75 3.69,-14.66c1.84,-0.91 4.22,-0.81 4.5,0.35h8.32c0.28,-1.16 2.65,-1.25 4.5,-0.35c1.85,0.9 7.49,15.06 3.69,14.66z" fill="#bfbfbf" stroke="#263238" stroke-linecap="round" stroke-linejoin="round"/><path d="M95.59,337.62c-2,-0.51 -3.88,-2.94 -5.39,-4.52c-1.13,-1.19 -11.87,-1.19 -13,0c-1.51,1.58 -3.43,4 -5.39,4.52c1.77,-1.69 3.92,-6.16 4.92,-7.31c1.23,-1.43 1.82,-0.64 1.82,-0.64h10.3c0,0 0.59,-0.79 1.83,0.64c0.99,1.15 3.14,5.62 4.91,7.31z" fill="#263238" stroke="none" stroke-linecap="butt" stroke-linejoin="miter"/><path d="M429.66,363.46l-7.95,3.02l-3.34,-8.76l2.63,-5.06l5.32,2.03z" fill="#ba296c" stroke="#263238" stroke-linecap="round" stroke-linejoin="round"/><path d="M52.01,363.36l-8.36,-1.55l1.71,-9.22l4.87,-2.96l3.49,4.51z" fill="#ba296c" stroke="#263238" stroke-linecap="round" stroke-linejoin="round"/></g><text transform="translate(140.8,250.7) scale(0.43479,0.41333)" font-size="40" xml:space="preserve" fill="#ffffff" fill-rule="nonzero" stroke="none" stroke-width="1" stroke-linecap="butt" stroke-linejoin="miter" stroke-miterlimit="10" stroke-dasharray="" stroke-dashoffset="0" font-family="Sans Serif" font-weight="normal" text-anchor="start" style="mix-blend-mode: normal"><tspan x="0" dy="0">CUMPARĂ</tspan></text></g></g></svg>